<svg width="300" height="400" viewBox="0 0 300 400" xmlns="http://www.w3.org/2000/svg">
  <defs>
    <filter id="outline" x="-50%" y="-50%" width="200%" height="200%">
      <feFlood flood-color="white" result="white"/>
      <feComposite in="white" in2="SourceGraphic" operator="in" result="filled"/>
      <feMorphology in="filled" operator="dilate" radius="2" result="expanded"/>
      <feComposite in="expanded" in2="filled" operator="out" result="outline"/>
    </filter>
  </defs>
  
  <!-- Simplified electrician silhouette -->
  <g fill="white" opacity="0.2" filter="url(#outline)">
    <!-- Head -->
    <circle cx="150" cy="80" r="25"/>
    <!-- Hard hat -->
    <path d="M 125 70 Q 150 60 175 70 Q 180 65 180 60 L 120 60 Q 120 65 125 70"/>
    <!-- Body -->
    <rect x="130" y="105" width="40" height="80" rx="5"/>
    <!-- Arms -->
    <rect x="100" y="115" width="25" height="50" rx="12" transform="rotate(-15 112 140)"/>
    <rect x="175" y="115" width="25" height="50" rx="12" transform="rotate(15 187 140)"/>
    <!-- Tool in hand -->
    <rect x="90" y="155" width="15" height="3" rx="1" transform="rotate(-30 97 156)"/>
    <!-- Legs -->
    <rect x="135" y="185" width="12" height="60" rx="6"/>
    <rect x="153" y="185" width="12" height="60" rx="6"/>
    <!-- Tools/belt -->
    <rect x="125" y="160" width="50" height="8" rx="2"/>
    <circle cx="140" cy="164" r="3"/>
    <circle cx="160" cy="164" r="3"/>
  </g>
</svg>