<svg width="300" height="400" viewBox="0 0 300 400" xmlns="http://www.w3.org/2000/svg">
  <!-- Simplified mechanic silhouette -->
  <g fill="white" stroke="white" stroke-width="1" opacity="0.4">
    <!-- Head -->
    <circle cx="150" cy="80" r="25"/>
    <!-- Cap/bandana -->
    <path d="M 125 65 Q 150 55 175 65 L 175 75 Q 150 70 125 75 Z"/>
    <!-- Body (overalls) -->
    <rect x="125" y="105" width="50" height="85" rx="8"/>
    <!-- Overall straps -->
    <rect x="135" y="105" width="4" height="25"/>
    <rect x="161" y="105" width="4" height="25"/>
    <!-- Arms -->
    <rect x="95" y="120" width="25" height="55" rx="12" transform="rotate(-20 107 147)"/>
    <rect x="180" y="120" width="25" height="55" rx="12" transform="rotate(25 192 147)"/>
    <!-- Wrench in hand -->
    <rect x="75" y="165" width="20" height="4" rx="2" transform="rotate(-35 85 167)"/>
    <circle cx="75" cy="167" r="4" transform="rotate(-35 85 167)"/>
    <!-- Legs -->
    <rect x="135" y="190" width="12" height="65" rx="6"/>
    <rect x="153" y="190" width="12" height="65" rx="6"/>
    <!-- Work boots -->
    <ellipse cx="141" cy="260" rx="8" ry="4"/>
    <ellipse cx="159" cy="260" rx="8" ry="4"/>
  </g>
</svg>