<svg width="300" height="400" viewBox="0 0 300 400" xmlns="http://www.w3.org/2000/svg">
  <!-- Simplified plumber silhouette -->
  <g fill="white" stroke="white" stroke-width="1" opacity="0.4">
    <!-- Head -->
    <circle cx="150" cy="80" r="25"/>
    <!-- Cap with bill -->
    <ellipse cx="150" cy="70" rx="28" ry="20"/>
    <ellipse cx="175" cy="70" rx="12" ry="8"/>
    <!-- Body -->
    <rect x="128" y="105" width="44" height="80" rx="6"/>
    <!-- Arms -->
    <rect x="100" y="118" width="25" height="52" rx="12" transform="rotate(-10 112 144)"/>
    <rect x="175" y="118" width="25" height="52" rx="12" transform="rotate(20 187 144)"/>
    <!-- Pipe wrench -->
    <rect x="195" y="160" width="25" height="5" rx="2" transform="rotate(35 207 162)"/>
    <rect x="218" y="158" width="8" height="9" rx="3" transform="rotate(35 222 162)"/>
    <!-- Legs -->
    <rect x="134" y="185" width="14" height="62" rx="7"/>
    <rect x="152" y="185" width="14" height="62" rx="7"/>
    <!-- Tool belt -->
    <rect x="123" y="165" width="54" height="10" rx="3"/>
    <rect x="140" y="170" width="6" height="15" rx="2"/>
    <rect x="154" y="170" width="6" height="15" rx="2"/>
    <!-- Plumbing symbol/pipe -->
    <rect x="125" y="140" width="20" height="4" rx="2"/>
    <rect x="135" y="130" width="4" height="20" rx="2"/>
  </g>
</svg>